<?xml version="1.0" encoding="utf-8"?>
<!-- Generator: Adobe Illustrator 22.1.0, SVG Export Plug-In . SVG Version: 6.00 Build 0)  -->
<svg version="1.1" id="Layer_1" xmlns="http://www.w3.org/2000/svg" xmlns:xlink="http://www.w3.org/1999/xlink" x="0px" y="0px"
	 viewBox="0 0 300 200" style="enable-background:new 0 0 300 200;" xml:space="preserve">
<style type="text/css">
	.st0{fill:#3C6880;}
</style>
<g>
	<path class="st0" d="M47,129.9c1.2,0,2.2-0.3,3.1-0.8c0.9-0.6,1.5-1.8,1.9-3.7c0.4-1.9,0.8-3,1.3-3.4c0.5-0.4,1.1-0.6,1.7-0.6
		c0.5,0,1,0.3,1.5,0.8c0.5,0.5,0.8,1.2,0.8,2.1c0,2.8,0.2,5.5,0.6,8.3c0,1.7-0.8,2.5-2.5,2.3c-1.1-0.1-2.8-0.2-5-0.2H13.1
		c-2.9,0-4.4-0.8-4.4-2.3c0-1,0.3-1.6,0.8-1.9c0.5-0.3,1.3-0.4,2.4-0.5c2.1-0.1,3.4-0.7,3.9-1.6c0.5-1,0.8-2.1,0.8-3.3V74.9
		c0-1.2-0.3-2.2-0.9-3.2c-0.6-0.9-1.8-1.7-3.8-2.3c-1.9-0.6-3.1-1.2-3.5-1.7c-0.4-0.5-0.6-1.1-0.6-1.8c0-0.4,0.2-0.7,0.7-1.1
		c0.5-0.4,1-0.5,1.7-0.5c0.4,0,1.5,0.3,3.2,0.9c1.7,0.6,3.6,0.9,5.7,0.9c2.6,0,5-0.3,7.3-1c2.3-0.7,3.8-1,4.4-1
		c0.7,0,1.4,0.3,1.9,0.8c0.6,0.5,0.8,1.1,0.8,1.7c0,0.5-0.2,1-0.5,1.3c-0.3,0.4-1.2,0.7-2.6,1c-1.8,0.4-3,0.8-3.8,1.4
		c-1.2,1.1-1.9,2.8-1.9,5.4v47.8c0,2.4,0.4,4,1.1,5c0.7,0.9,1.8,1.4,3.3,1.4H47z"/>
	<path class="st0" d="M95.5,125.7c0,2.3,1.5,3.9,4.6,4.8c0.8,0.2,1.3,0.5,1.7,0.8c0.4,0.3,0.5,0.8,0.5,1.6c0,0.4-0.2,0.8-0.7,1.1
		c-0.5,0.3-1,0.5-1.6,0.5c-0.6,0-1.4-0.1-2.5-0.4c-1-0.3-1.9-0.4-2.5-0.4c-0.7,0-1.7,0.1-2.8,0.4c-1.1,0.3-1.9,0.4-2.2,0.4
		c-0.4,0-0.9-0.2-1.3-0.5c-0.4-0.3-0.6-0.6-0.6-1c0-0.5-0.2-0.8-0.5-0.8c-0.2,0-0.5,0.1-0.9,0.3c-3.6,2.2-7.5,3.3-11.7,3.3
		c-2,0-4.2-0.5-6.6-1.5c-2.4-1-4.4-2.6-5.9-4.7c-1.5-2.1-2.2-4.7-2.2-7.9c0-3.3,1.6-6.2,4.7-8.8c3.2-2.5,7.2-3.8,12.2-3.8
		c1.7,0,3.5,0.5,5.6,1.4c2,0.9,3,1.9,3,2.9c0,0.5-0.2,0.9-0.6,1.1c-0.4,0.3-0.9,0.4-1.5,0.4c-0.4,0-1.2-0.3-2.4-0.9
		c-1.2-0.6-2.5-0.9-3.7-0.9c-2.6,0-4.8,0.8-6.5,2.3c-1.7,1.5-2.6,3.6-2.6,6.2c0,3,1,5.3,3,6.9c2,1.6,4.3,2.4,6.8,2.4
		c2.3,0,4.5-0.8,6.4-2.3c2-1.5,2.9-3.6,2.9-6.1v-13c0-1.9-0.6-3.5-1.9-4.7c-1.3-1.2-3-1.8-5.2-1.8c-2.8,0-5.5,0.9-8.1,2.6
		c-0.9,0.6-1.5,0.9-1.8,0.9c-0.8,0-1.4-0.2-2-0.6c-0.5-0.4-0.8-0.9-0.8-1.6c0-1.6,1.4-2.9,4.3-4c2.8-1.1,6-1.6,9.3-1.6
		c4.2,0,7.5,1.1,10.1,3.1c2.5,2.1,3.8,4.6,3.8,7.5V125.7z"/>
	<path class="st0" d="M119.8,110.7l0.2,1.3c0.2,0,0.9-1.5,2.2-4.5c1.3-3,2.7-5.2,4-6.5c1.3-1.3,2.7-1.9,4.1-1.9
		c1.1,0,1.9,0.2,2.5,0.6c0.6,0.4,0.8,0.8,0.8,1.3c0,0.8-0.2,1.5-0.6,2s-1.1,1.1-2,1.9c-4.1,3.1-7,6.8-8.8,11.2
		c-1.8,4.4-2.7,8.1-2.7,11c0,1.4,0.2,2.3,0.5,2.8c0.4,0.5,1.2,0.9,2.7,1.2c1.4,0.3,2.3,0.7,2.7,1.1c0.4,0.4,0.6,0.8,0.6,1.4
		c0,0.9-0.6,1.4-1.7,1.4c-0.9,0-2.1-0.1-3.7-0.4c-1.6-0.3-3.3-0.4-5.1-0.4c-1.2,0-2.4,0.1-3.7,0.4c-1.2,0.3-2,0.4-2.4,0.4
		c-0.9,0-1.6-0.2-2.2-0.5c-0.5-0.3-0.8-0.8-0.8-1.3c0-0.4,0.1-0.7,0.5-1c0.3-0.3,1.2-0.7,2.6-1.2c1.4-0.5,2.3-1,2.6-1.4
		c0.3-0.5,0.5-2,0.5-4.5v-14.5c0-0.9-0.2-1.7-0.6-2.5c-0.4-0.7-1.3-1.3-2.6-1.7c-1.3-0.4-2.1-0.7-2.3-1c-0.2-0.3-0.4-0.6-0.4-1
		c0-1.1,0.7-1.6,2.3-1.6c0.4,0,1.1,0.1,2.1,0.2c1,0.2,1.7,0.2,2,0.2c0.3,0,0.8-0.1,1.6-0.2c0.7-0.1,1.6-0.2,2.6-0.2
		c1.7,0,2.6,1.8,2.6,5.5V110.7z"/>
	<path class="st0" d="M171.2,125.7c0,2.3,1.5,3.9,4.6,4.8c0.8,0.2,1.3,0.5,1.7,0.8c0.4,0.3,0.5,0.8,0.5,1.6c0,0.4-0.2,0.8-0.7,1.1
		c-0.5,0.3-1,0.5-1.6,0.5c-0.6,0-1.4-0.1-2.5-0.4c-1-0.3-1.9-0.4-2.5-0.4c-0.7,0-1.7,0.1-2.8,0.4c-1.1,0.3-1.9,0.4-2.2,0.4
		c-0.4,0-0.9-0.2-1.3-0.5c-0.4-0.3-0.6-0.6-0.6-1c0-0.5-0.2-0.8-0.5-0.8c-0.2,0-0.5,0.1-0.9,0.3c-3.6,2.2-7.5,3.3-11.7,3.3
		c-2,0-4.2-0.5-6.6-1.5c-2.4-1-4.4-2.6-5.9-4.7c-1.5-2.1-2.2-4.7-2.2-7.9c0-3.3,1.6-6.2,4.7-8.8c3.2-2.5,7.2-3.8,12.2-3.8
		c1.7,0,3.5,0.5,5.6,1.4c2,0.9,3,1.9,3,2.9c0,0.5-0.2,0.9-0.6,1.1c-0.4,0.3-0.9,0.4-1.5,0.4c-0.4,0-1.2-0.3-2.4-0.9
		c-1.2-0.6-2.5-0.9-3.7-0.9c-2.6,0-4.8,0.8-6.5,2.3c-1.7,1.5-2.6,3.6-2.6,6.2c0,3,1,5.3,3,6.9c2,1.6,4.3,2.4,6.8,2.4
		c2.3,0,4.5-0.8,6.4-2.3c2-1.5,2.9-3.6,2.9-6.1v-13c0-1.9-0.6-3.5-1.9-4.7c-1.3-1.2-3-1.8-5.2-1.8c-2.8,0-5.5,0.9-8.1,2.6
		c-0.9,0.6-1.5,0.9-1.8,0.9c-0.8,0-1.4-0.2-2-0.6c-0.5-0.4-0.8-0.9-0.8-1.6c0-1.6,1.4-2.9,4.3-4c2.8-1.1,6-1.6,9.3-1.6
		c4.2,0,7.5,1.1,10.1,3.1c2.5,2.1,3.8,4.6,3.8,7.5V125.7z"/>
	<path class="st0" d="M195.7,127.2c0,0.9,0.2,1.6,0.7,2.2c0.4,0.6,1.4,1,3,1.3c1.5,0.3,2.5,0.6,2.8,1c0.3,0.4,0.5,0.9,0.5,1.5
		c0,1-0.8,1.6-2.3,1.6c-1,0-2.4-0.1-4.3-0.4c-1.9-0.2-3.3-0.4-4.3-0.4c-0.9,0-2.2,0.1-3.9,0.4c-1.7,0.2-3,0.4-3.9,0.4
		c-1.3,0-2.1-0.1-2.5-0.4c-0.4-0.3-0.5-0.7-0.5-1.2c0-0.5,0.1-1,0.5-1.3c0.3-0.4,1.3-0.7,2.9-0.9c1.6-0.2,2.7-0.8,3.2-1.6
		c0.5-0.8,0.7-1.8,0.7-2.8V74.9c0-1.1-0.3-2.1-0.8-2.9c-0.5-0.8-1.6-1.5-3.2-1.8c-1.6-0.4-2.5-0.8-2.8-1.2c-0.3-0.4-0.5-0.8-0.5-1.3
		c0-0.5,0.3-0.9,0.8-1.2c0.5-0.3,1.1-0.4,1.7-0.4c0.5,0,1.3,0.1,2.3,0.3c1,0.2,1.7,0.3,2.2,0.3c0.5,0,1.4-0.1,2.4-0.3
		c1.1-0.2,1.9-0.3,2.4-0.3c1,0,1.8,0.3,2.3,0.8c0.5,0.5,0.7,1.5,0.7,2.9V127.2z"/>
	<path class="st0" d="M237.3,115.1c0.7,0,1.2-0.1,1.5-0.4c0.3-0.3,0.4-0.7,0.4-1.4c0-2.4-0.9-4.7-2.8-6.8c-1.9-2.1-4.8-3.2-8.6-3.2
		c-2.6,0-5.4,1.3-8.2,3.8c-2.8,2.5-4.2,6.1-4.2,10.7c0,3.4,1.5,6.4,4.5,9.1c3,2.7,6.3,4,10,4c2.8,0,5.8-0.9,9.1-2.6
		c1.2-0.7,2.1-1,2.4-1c0.6,0,1,0.2,1.4,0.5c0.3,0.3,0.5,0.7,0.5,1.2c0,1.2-1.8,2.6-5.3,4.2c-3.5,1.7-7.1,2.5-10.9,2.5
		c-5.5,0-10.1-1.9-13.9-5.6c-3.8-3.8-5.6-8.2-5.6-13.4c0-4.7,2.1-8.8,6.2-12.2c4.1-3.4,8.8-5.1,13.9-5.1c6.7,0,11.6,1.7,15,5.1
		c3.3,3.4,5,7.5,5,12.2c0,1-0.3,1.6-0.8,1.9c-0.5,0.2-1.4,0.4-2.8,0.4h-21.9c-1.8,0-2.7-0.7-2.7-2c0-1.3,0.9-1.9,2.8-1.9H237.3z"/>
	<path class="st0" d="M285.4,125.7c0,2.3,1.5,3.9,4.6,4.8c0.8,0.2,1.3,0.5,1.7,0.8c0.4,0.3,0.5,0.8,0.5,1.6c0,0.4-0.2,0.8-0.7,1.1
		c-0.5,0.3-1,0.5-1.6,0.5c-0.6,0-1.4-0.1-2.5-0.4c-1-0.3-1.9-0.4-2.5-0.4c-0.7,0-1.7,0.1-2.8,0.4c-1.1,0.3-1.9,0.4-2.2,0.4
		c-0.4,0-0.9-0.2-1.3-0.5c-0.4-0.3-0.6-0.6-0.6-1c0-0.5-0.2-0.8-0.5-0.8c-0.2,0-0.5,0.1-0.9,0.3c-3.6,2.2-7.5,3.3-11.7,3.3
		c-2,0-4.2-0.5-6.6-1.5c-2.4-1-4.4-2.6-5.9-4.7c-1.5-2.1-2.2-4.7-2.2-7.9c0-3.3,1.6-6.2,4.7-8.8c3.2-2.5,7.2-3.8,12.2-3.8
		c1.7,0,3.5,0.5,5.6,1.4c2,0.9,3,1.9,3,2.9c0,0.5-0.2,0.9-0.6,1.1s-0.9,0.4-1.5,0.4c-0.4,0-1.2-0.3-2.4-0.9
		c-1.2-0.6-2.5-0.9-3.7-0.9c-2.6,0-4.8,0.8-6.5,2.3c-1.7,1.5-2.6,3.6-2.6,6.2c0,3,1,5.3,3,6.9c2,1.6,4.3,2.4,6.8,2.4
		c2.3,0,4.5-0.8,6.4-2.3c2-1.5,2.9-3.6,2.9-6.1v-13c0-1.9-0.6-3.5-1.9-4.7c-1.3-1.2-3-1.8-5.2-1.8c-2.8,0-5.5,0.9-8.1,2.6
		c-0.9,0.6-1.5,0.9-1.8,0.9c-0.8,0-1.4-0.2-2-0.6c-0.5-0.4-0.8-0.9-0.8-1.6c0-1.6,1.4-2.9,4.3-4c2.8-1.1,6-1.6,9.3-1.6
		c4.2,0,7.5,1.1,10.1,3.1c2.5,2.1,3.8,4.6,3.8,7.5V125.7z"/>
</g>
</svg>
